<?xml version="1.0" encoding="utf-8"?>
<!-- Generator: Adobe Illustrator 15.1.0, SVG Export Plug-In  -->
<!DOCTYPE svg PUBLIC "-//W3C//DTD SVG 1.1//EN" "http://www.w3.org/Graphics/SVG/1.1/DTD/svg11.dtd" [
	<!ENTITY ns_flows "http://ns.adobe.com/Flows/1.0/">
]>
<svg version="1.1"
	 xmlns="http://www.w3.org/2000/svg" xmlns:xlink="http://www.w3.org/1999/xlink" xmlns:a="http://ns.adobe.com/AdobeSVGViewerExtensions/3.0/"
	 x="0px" y="0px" width="320px" height="460px" viewBox="13.445 11 320 460"
	 overflow="visible" enable-background="new 13.445 11 320 460" xml:space="preserve">
<defs>
</defs>
<filter  width="140%" height="130%" x="-15%" y="-15%" id="AI_Shadow_2" filterUnits="objectBoundingBox">
	<feGaussianBlur  in="SourceAlpha" stdDeviation="6" result="blur"></feGaussianBlur>
	<feOffset  dx="8" dy="8" in="blur" result="offsetBlurredAlpha"></feOffset>
	<feMerge>
		<feMergeNode  in="offsetBlurredAlpha"></feMergeNode>
		<feMergeNode  in="SourceGraphic"></feMergeNode>
	</feMerge>
</filter>
<filter  id="AI_GaussianBlur_4">
	<feGaussianBlur  stdDeviation="4"></feGaussianBlur>
</filter>
<linearGradient id="SVGID_1_" gradientUnits="userSpaceOnUse" x1="-40.9014" y1="58.8091" x2="387.791" y2="418.5247">
	<stop  offset="0" style="stop-color:#ADD2EF"/>
	<stop  offset="1" style="stop-color:#4D7399"/>
</linearGradient>
<rect x="8.445" fill="url(#SVGID_1_)" width="330" height="477.334"/>
<g filter="url(#AI_GaussianBlur_4)">
	<path fill="#FFFFFF" d="M76.762,263.953c0.093,2.916-1.863,5.28-4.368,5.28H44.763c-2.505,0-4.386-2.364-4.2-5.28l2.047-32.163
		c0.186-2.916,2.142-5.28,4.368-5.28h24.561c2.227,0,4.107,2.364,4.2,5.28L76.762,263.953z"/>
	<path fill="#FFFFFF" d="M115.978,263.953c0.395,2.916-1.317,5.28-3.822,5.28H84.524c-2.505,0-4.63-2.364-4.746-5.28l-1.279-32.163
		c-0.116-2.916,1.596-5.28,3.822-5.28h24.561c2.227,0,4.352,2.364,4.746,5.28L115.978,263.953z"/>
	<path fill="#FFFFFF" d="M155.193,263.953c0.695,2.916-0.771,5.28-3.276,5.28h-27.631c-2.505,0-4.875-2.364-5.292-5.28
		l-4.605-32.163c-0.417-2.916,1.05-5.28,3.276-5.28h24.561c2.227,0,4.597,2.364,5.292,5.28L155.193,263.953z"/>
	<path fill="#FFFFFF" d="M194.409,263.953c0.997,2.916-0.226,5.28-2.73,5.28h-27.631c-2.505,0-5.119-2.364-5.838-5.28l-7.932-32.163
		c-0.719-2.916,0.504-5.28,2.73-5.28h24.561c2.227,0,4.841,2.364,5.838,5.28L194.409,263.953z"/>
	<path fill="#FFFFFF" d="M233.625,263.953c1.299,2.916,0.32,5.28-2.185,5.28H203.81c-2.505,0-5.363-2.364-6.384-5.28l-11.258-32.163
		c-1.021-2.916-0.042-5.28,2.185-5.28h24.561c2.227,0,5.085,2.364,6.384,5.28L233.625,263.953z"/>
	<path fill="#FFFFFF" d="M78.234,310.236c0.093,2.916-2.107,5.28-4.914,5.28H42.363c-2.807,0-4.932-2.364-4.746-5.28l2.047-32.163
		c0.186-2.916,2.386-5.279,4.914-5.279h27.887c2.528,0,4.653,2.363,4.746,5.279L78.234,310.236z"/>
	<path fill="#FFFFFF" d="M122.236,310.236c0.395,2.916-1.562,5.28-4.369,5.28H86.912c-2.808,0-5.177-2.364-5.293-5.28l-1.279-32.163
		c-0.116-2.916,1.84-5.279,4.368-5.279h27.887c2.528,0,4.897,2.363,5.292,5.279L122.236,310.236z"/>
	<path opacity="0.43" stroke="#000000" stroke-miterlimit="10" d="M166.238,310.236c0.695,2.916-1.016,5.28-3.822,5.28h-30.957
		c-2.807,0-5.421-2.364-5.838-5.28l-4.605-32.163c-0.417-2.916,1.294-5.279,3.822-5.279h27.887c2.528,0,5.143,2.363,5.838,5.279
		L166.238,310.236z"/>
	<path fill="#FFFFFF" d="M210.239,310.236c0.998,2.916-0.469,5.28-3.276,5.28h-30.955c-2.808,0-5.666-2.364-6.385-5.28
		l-7.932-32.163c-0.719-2.916,0.748-5.279,3.276-5.279h27.887c2.528,0,5.387,2.363,6.384,5.279L210.239,310.236z"/>
	<path fill="#FFFFFF" d="M254.241,310.236c1.3,2.916,0.077,5.28-2.729,5.28h-30.957c-2.807,0-5.909-2.364-6.931-5.28l-11.257-32.163
		c-1.021-2.916,0.202-5.279,2.73-5.279h27.887c2.528,0,5.631,2.363,6.93,5.279L254.241,310.236z"/>
	<path fill="#FFFFFF" d="M79.707,356.52c0.093,2.917-2.352,5.28-5.461,5.28H39.965c-3.109,0-5.479-2.363-5.293-5.28l2.047-32.162
		c0.186-2.916,2.63-5.28,5.461-5.28h31.211c2.831,0,5.2,2.364,5.293,5.28L79.707,356.52z"/>
	<path opacity="0.43" stroke="#000000" stroke-miterlimit="10" d="M129.67,355.236c0.403,2.917-1.783,5.281-4.884,5.281h-34.19
		c-3.1,0-5.714-2.364-5.838-5.281l-1.372-32.162c-0.124-2.916,2.062-5.28,4.885-5.28h31.119c2.822,0,5.437,2.364,5.839,5.28
		L129.67,355.236z"/>
	<path opacity="0.43" stroke="#000000" stroke-miterlimit="10" d="M178.325,355.236c0.704,2.917-1.237,5.281-4.338,5.281h-34.189
		c-3.101,0-5.959-2.364-6.385-5.281l-4.697-32.162c-0.426-2.916,1.516-5.28,4.338-5.28h31.12c2.821,0,5.68,2.364,6.385,5.28
		L178.325,355.236z"/>
	<path opacity="0.43" stroke="#000000" stroke-miterlimit="10" d="M226.07,356.52c0.998,2.917-0.713,5.28-3.822,5.28h-34.281
		c-3.109,0-6.212-2.363-6.931-5.28l-7.932-32.162c-0.719-2.916,0.992-5.28,3.823-5.28h31.211c2.831,0,5.934,2.364,6.932,5.28
		L226.07,356.52z"/>
	<path fill="#FFFFFF" d="M274.858,356.52c1.3,2.917-0.167,5.28-3.276,5.28h-34.281c-3.109,0-6.456-2.363-7.478-5.28l-11.256-32.162
		c-1.021-2.916,0.445-5.28,3.276-5.28h31.211c2.831,0,6.178,2.364,7.478,5.28L274.858,356.52z"/>
	<path fill="#FFFFFF" d="M81.18,402.803c0.093,2.917-2.597,5.281-6.007,5.281H37.565c-3.41,0-6.024-2.364-5.839-5.281l2.047-32.162
		c0.186-2.916,2.875-5.28,6.007-5.28h34.537c3.132,0,5.746,2.364,5.839,5.28L81.18,402.803z"/>
	<path fill="#FFFFFF" d="M134.754,402.803c0.395,2.917-2.051,5.281-5.461,5.281H91.686c-3.41,0-6.269-2.364-6.385-5.281
		l-1.279-32.162c-0.116-2.916,2.329-5.28,5.461-5.28h34.537c3.132,0,5.99,2.364,6.385,5.28L134.754,402.803z"/>
	<path opacity="0.43" stroke="#000000" stroke-miterlimit="10" d="M188.328,402.803c0.695,2.917-1.505,5.281-4.915,5.281h-37.607
		c-3.41,0-6.514-2.364-6.931-5.281l-4.605-32.162c-0.417-2.916,1.783-5.28,4.915-5.28h34.537c3.132,0,6.235,2.364,6.931,5.28
		L188.328,402.803z"/>
	<path fill="#FFFFFF" d="M241.901,402.803c0.998,2.917-0.958,5.281-4.368,5.281h-37.607c-3.41,0-6.758-2.364-7.477-5.281
		l-7.932-32.162c-0.719-2.916,1.237-5.28,4.369-5.28h34.537c3.132,0,6.479,2.364,7.478,5.28L241.901,402.803z"/>
	<path fill="#FFFFFF" d="M295.476,402.803c1.3,2.917-0.412,5.281-3.822,5.281h-37.607c-3.41,0-7.002-2.364-8.023-5.281
		l-11.256-32.162c-1.021-2.916,0.69-5.28,3.822-5.28h34.537c3.132,0,6.724,2.364,8.023,5.28L295.476,402.803z"/>
	<path fill="#FFFFFF" d="M82.652,449.087c0.093,2.916-2.841,5.28-6.553,5.28H35.166c-3.712,0-6.57-2.364-6.385-5.28l2.047-32.162
		c0.186-2.917,3.119-5.281,6.553-5.281h37.863c3.434,0,6.292,2.364,6.385,5.281L82.652,449.087z"/>
	<path fill="#FFFFFF" d="M141.013,449.087c0.395,2.916-2.295,5.28-6.007,5.28H94.072c-3.712,0-6.814-2.364-6.931-5.28l-1.279-32.162
		c-0.116-2.917,2.573-5.281,6.007-5.281h37.863c3.434,0,6.536,2.364,6.931,5.281L141.013,449.087z"/>
	<path fill="#FFFFFF" d="M199.373,449.087c0.695,2.916-1.749,5.28-5.461,5.28h-40.934c-3.712,0-7.06-2.364-7.477-5.28l-4.605-32.162
		c-0.417-2.917,2.027-5.281,5.461-5.281h37.863c3.434,0,6.781,2.364,7.477,5.281L199.373,449.087z"/>
	<path fill="#FFFFFF" d="M257.732,449.087c0.998,2.916-1.202,5.28-4.914,5.28h-40.934c-3.712,0-7.304-2.364-8.022-5.28
		l-7.932-32.162c-0.719-2.917,1.481-5.281,4.915-5.281h37.863c3.434,0,7.025,2.364,8.023,5.281L257.732,449.087z"/>
	<path fill="#FFFFFF" d="M316.093,449.087c1.3,2.916-0.656,5.28-4.368,5.28h-40.934c-3.712,0-7.548-2.364-8.569-5.28l-11.256-32.162
		c-1.021-2.917,0.935-5.281,4.368-5.281h37.863c3.434,0,7.27,2.364,8.569,5.281L316.093,449.087z"/>
</g>
<text transform="matrix(1 0 0 1 50.6328 59)" filter="url(#AI_Shadow_2)"><tspan x="0" y="0" stroke="#AD1E23" stroke-miterlimit="10" font-family="'Courier'" font-size="10">                     _____)</tspan><tspan x="0" y="12" stroke="#AD1E23" stroke-miterlimit="10" font-family="'Courier'" font-size="10">            ,   /) /</tspan><tspan x="0" y="24" stroke="#AD1E23" stroke-miterlimit="10" font-family="'Courier'" font-size="10">   _   __     _(/ /   ___   _  ___    _</tspan><tspan x="0" y="36" stroke="#AD1E23" stroke-miterlimit="10" font-family="'Courier'" font-size="10">  (_/_/ (__(_(_(_/     / ) (_(_// (__(/_</tspan><tspan x="0" y="48" stroke="#AD1E23" stroke-miterlimit="10" font-family="'Courier'" font-size="10"> .-/            (____ /</tspan><tspan x="0" y="60" stroke="#AD1E23" stroke-miterlimit="10" font-family="'Courier'" font-size="10">(_/</tspan></text>
</svg>
